<?xml version="1.0" standalone="no"?>
<!DOCTYPE svg PUBLIC "-//W3C//DTD SVG 20010904//EN"
 "http://www.w3.org/TR/2001/REC-SVG-20010904/DTD/svg10.dtd">
<svg version="1.0" xmlns="http://www.w3.org/2000/svg"
 width="128.000000pt" height="128.000000pt" viewBox="0 0 128.000000 128.000000"
 preserveAspectRatio="xMidYMid meet">
<metadata>
Created by potrace 1.11, written by Peter Selinger 2001-2013
</metadata>
<g transform="translate(0.000000,128.000000) scale(0.100000,-0.100000)"
fill="#000000" stroke="none">
<path d="M225 1095 c-22 -21 -25 -33 -25 -100 l0 -75 -40 0 -40 0 0 -120 0
-120 40 0 40 0 0 -40 0 -40 -40 0 -40 0 0 -120 0 -120 40 0 40 0 0 -75 c0 -67
3 -79 25 -100 l24 -25 431 0 431 0 24 25 25 24 0 431 0 431 -25 24 -24 25
-431 0 -431 0 -24 -25z"/>
</g>
</svg>
